<svg xmlns="http://www.w3.org/2000/svg" viewBox="0 0 680 420"><defs><radialGradient id="bg"><stop stop-color="#30241c"/><stop offset="1" stop-color="#141414"/></radialGradient><pattern id="grid" width="34" height="34" patternUnits="userSpaceOnUse"><path d="M34 0H0V34" fill="none" stroke="#B9855B" stroke-opacity=".08"/></pattern></defs><path fill="url(#bg)" d="M0 0H680V420H0Z"/><path fill="url(#grid)" d="M0 0H680V420H0Z"/><g stroke="#d8a071" stroke-width="1.5" stroke-linejoin="round" fill="none" opacity=".8"><path d="M60 350L270 70 410 350M155 350L410 135 565 350M80 350H570"/><circle cx="495" cy="105" r="33"/><path d="M235 215L270 150 320 230M310 350C285 295 350 270 335 350"/></g><g stroke="#b9855b" opacity=".4"><path d="M25 30H100M25 30V85M655 390H580M655 390V335"/></g></svg>